<svg width="48" height="48" viewBox="0 0 48 48" fill="none" xmlns="http://www.w3.org/2000/svg">
<path d="M4 3C4 2.73478 4.10536 2.48043 4.29289 2.29289C4.48043 2.10536 4.73478 2 5 2H9C9.26522 2 9.51957 2.10536 9.70711 2.29289C9.89464 2.48043 10 2.73478 10 3C10 3.26522 9.89464 3.51957 9.70711 3.70711C9.51957 3.89464 9.26522 4 9 4H6V16H9C9.26522 16 9.51957 16.1054 9.70711 16.2929C9.89464 16.4804 10 16.7348 10 17C10 17.2652 9.89464 17.5196 9.70711 17.7071C9.51957 17.8946 9.26522 18 9 18H6V30H9C9.26522 30 9.51957 30.1054 9.70711 30.2929C9.89464 30.4804 10 30.7348 10 31C10 31.2652 9.89464 31.5196 9.70711 31.7071C9.51957 31.8946 9.26522 32 9 32H6V44H9C9.26522 44 9.51957 44.1054 9.70711 44.2929C9.89464 44.4804 10 44.7348 10 45C10 45.2652 9.89464 45.5196 9.70711 45.7071C9.51957 45.8946 9.26522 46 9 46H5C4.73478 46 4.48043 45.8946 4.29289 45.7071C4.10536 45.5196 4 45.2652 4 45V3Z" fill="#222222"/>
<path fill-rule="evenodd" clip-rule="evenodd" d="M23 10C24.0609 10 25.0783 9.57857 25.8284 8.82843C26.5786 8.07828 27 7.06087 27 6C27 4.93913 26.5786 3.92172 25.8284 3.17157C25.0783 2.42143 24.0609 2 23 2C21.9391 2 20.9217 2.42143 20.1716 3.17157C19.4214 3.92172 19 4.93913 19 6C19 7.06087 19.4214 8.07828 20.1716 8.82843C20.9217 9.57857 21.9391 10 23 10ZM23 8C23.5304 8 24.0392 7.78929 24.4142 7.41421C24.7893 7.03914 25 6.53043 25 6C25 5.46957 24.7893 4.96086 24.4142 4.58579C24.0392 4.21071 23.5304 4 23 4C22.4696 4 21.9609 4.21071 21.5858 4.58579C21.2107 4.96086 21 5.46957 21 6C21 6.53043 21.2107 7.03914 21.5858 7.41421C21.9609 7.78929 22.4696 8 23 8ZM28.99 27.873C29.9137 27.6326 30.7211 27.0699 31.2664 26.2866C31.8118 25.5032 32.0592 24.5507 31.964 23.601L31.151 15.501C31.0273 14.2675 30.4498 13.124 29.5305 12.2923C28.6112 11.4605 27.4157 11 26.176 11H19.823C18.5835 11 17.3881 11.4604 16.4689 12.2919C15.5496 13.1234 14.972 14.2667 14.848 15.5L14.036 23.6C13.9406 24.55 14.1881 25.5029 14.7336 26.2864C15.2792 27.07 16.0869 27.6328 17.011 27.873L18.152 43.68C18.1975 44.3103 18.48 44.9 18.9428 45.3305C19.4055 45.7609 20.014 46.0001 20.646 46H25.355C25.9868 45.9999 26.5951 45.7605 27.0576 45.3301C27.5201 44.8997 27.8025 44.3102 27.848 43.68L28.99 27.873ZM16.837 15.7C16.9114 14.9598 17.2581 14.2737 17.8099 13.7748C18.3617 13.2759 19.0791 12.9997 19.823 13H26.176C26.9197 13 27.6369 13.2762 28.1885 13.7751C28.7401 14.274 29.0866 14.96 29.161 15.7L29.974 23.8C30.0018 24.0768 29.9716 24.3563 29.8853 24.6207C29.799 24.8852 29.6584 25.1287 29.4727 25.3357C29.2869 25.5428 29.06 25.7088 28.8064 25.8232C28.5528 25.9376 28.2782 25.9978 28 26V18C28 17.7348 27.8947 17.4804 27.7071 17.2929C27.5196 17.1054 27.2652 17 27 17C26.7348 17 26.4804 17.1054 26.2929 17.2929C26.1054 17.4804 26 17.7348 26 18V26H20V18C20 17.7348 19.8947 17.4804 19.7071 17.2929C19.5196 17.1054 19.2652 17 19 17C18.7348 17 18.4804 17.1054 18.2929 17.2929C18.1054 17.4804 18 17.7348 18 18V26C17.7219 25.9978 17.4472 25.9376 17.1936 25.8232C16.9401 25.7088 16.7132 25.5428 16.5274 25.3357C16.3416 25.1287 16.2011 24.8852 16.1147 24.6207C16.0284 24.3563 15.9982 24.0768 16.026 23.8L16.837 15.7ZM19.025 28L20.147 43.536C20.1561 43.6621 20.2127 43.7801 20.3052 43.8662C20.3978 43.9523 20.5196 44.0001 20.646 44H22V31C22 30.7348 22.1054 30.4804 22.2929 30.2929C22.4804 30.1054 22.7348 30 23 30C23.2652 30 23.5196 30.1054 23.7071 30.2929C23.8947 30.4804 24 30.7348 24 31V44H25.355C25.4813 43.9998 25.6028 43.9519 25.6952 43.8658C25.7875 43.7798 25.8439 43.6619 25.853 43.536L26.975 28H19.025Z" fill="#222222"/>
<path d="M45.8 5.6C45.8788 5.49494 45.9362 5.37539 45.9688 5.24818C46.0014 5.12097 46.0086 4.98858 45.99 4.85858C45.9714 4.72858 45.9274 4.60351 45.8605 4.49051C45.7936 4.37751 45.7051 4.27879 45.6 4.2C45.495 4.12121 45.3754 4.06388 45.2482 4.03129C45.121 3.99869 44.9886 3.99148 44.8586 4.01005C44.7286 4.02862 44.6036 4.07262 44.4906 4.13953C44.3776 4.20643 44.2788 4.29494 44.2001 4.4L38.974 11.367L35.781 7.375C35.699 7.27244 35.5975 7.18705 35.4824 7.1237C35.3673 7.06035 35.2409 7.02029 35.1104 7.00581C34.9798 6.99132 34.8477 7.00269 34.7215 7.03927C34.5953 7.07585 34.4776 7.13692 34.3751 7.219C34.2725 7.30108 34.1871 7.40255 34.1237 7.51763C34.0604 7.6327 34.0203 7.75913 34.0059 7.88969C33.9914 8.02025 34.0027 8.15238 34.0393 8.27855C34.0759 8.40471 34.137 8.52244 34.2191 8.625L38.2191 13.625C38.3144 13.7442 38.4358 13.8399 38.5739 13.905C38.7119 13.97 38.8631 14.0025 39.0157 14.0001C39.1683 13.9977 39.3183 13.9604 39.4543 13.891C39.5902 13.8217 39.7085 13.7221 39.8 13.6L45.8 5.6Z" fill="#222222"/>
</svg>
