<svg width="20" height="20" viewBox="0 0 20 20" fill="none" xmlns="http://www.w3.org/2000/svg">
<g clip-path="url(#clip0_48_585)">
<path fill-rule="evenodd" clip-rule="evenodd" d="M5.1 4C5.33148 2.87136 5.94549 1.85723 6.83827 1.12898C7.73105 0.400721 8.84787 0.00299072 10 0.00299072C11.1521 0.00299072 12.2689 0.400721 13.1617 1.12898C14.0545 1.85723 14.6685 2.87136 14.9 4H17C17.5304 4 18.0391 4.21071 18.4142 4.58579C18.7893 4.96086 19 5.46957 19 6V18C19 18.5304 18.7893 19.0391 18.4142 19.4142C18.0391 19.7893 17.5304 20 17 20H3C2.46957 20 1.96086 19.7893 1.58579 19.4142C1.21071 19.0391 1 18.5304 1 18V6C1 5.46957 1.21071 4.96086 1.58579 4.58579C1.96086 4.21071 2.46957 4 3 4H5.1ZM15 6V8C15 8.26522 14.8946 8.51957 14.7071 8.70711C14.5196 8.89464 14.2652 9 14 9C13.7348 9 13.4804 8.89464 13.2929 8.70711C13.1054 8.51957 13 8.26522 13 8V6H7V8C7 8.26522 6.89464 8.51957 6.70711 8.70711C6.51957 8.89464 6.26522 9 6 9C5.73478 9 5.48043 8.89464 5.29289 8.70711C5.10536 8.51957 5 8.26522 5 8V6H3V18H17V6H15ZM12.83 4C12.6234 3.41447 12.2403 2.90743 11.7334 2.54879C11.2265 2.19015 10.6209 1.99755 10 1.99755C9.37909 1.99755 8.77346 2.19015 8.2666 2.54879C7.75974 2.90743 7.3766 3.41447 7.17 4H12.83Z" fill="black"/>
</g>
<defs>
<clipPath id="clip0_48_585">
<rect width="20" height="20" fill="white"/>
</clipPath>
</defs>
</svg>
