<svg width="20" height="20" viewBox="0 0 20 20" fill="none" xmlns="http://www.w3.org/2000/svg">
<path fill-rule="evenodd" clip-rule="evenodd" d="M13 7C13 7.39397 12.9224 7.78407 12.7716 8.14805C12.6209 8.51203 12.3999 8.84274 12.1213 9.12132C11.8427 9.3999 11.512 9.62087 11.1481 9.77164C10.7841 9.9224 10.394 10 10 10C9.60603 10 9.21593 9.9224 8.85195 9.77164C8.48797 9.62087 8.15726 9.3999 7.87868 9.12132C7.6001 8.84274 7.37913 8.51203 7.22836 8.14805C7.0776 7.78407 7 7.39397 7 7C7 6.20435 7.31607 5.44129 7.87868 4.87868C8.44129 4.31607 9.20435 4 10 4C10.7956 4 11.5587 4.31607 12.1213 4.87868C12.6839 5.44129 13 6.20435 13 7ZM11 7C11 7.26522 10.8946 7.51957 10.7071 7.70711C10.5196 7.89464 10.2652 8 10 8C9.73478 8 9.48043 7.89464 9.29289 7.70711C9.10536 7.51957 9 7.26522 9 7C9 6.73478 9.10536 6.48043 9.29289 6.29289C9.48043 6.10536 9.73478 6 10 6C10.2652 6 10.5196 6.10536 10.7071 6.29289C10.8946 6.48043 11 6.73478 11 7Z" fill="black"/>
<path fill-rule="evenodd" clip-rule="evenodd" d="M11.315 18.447L10 20L8.685 18.447C7.847 17.457 7 16.414 6.222 15.27C5.439 14.117 4.642 12.792 4.037 11.434C3.438 10.086 3 8.64 3 7.263C3 3.248 6.13 0 10 0C13.87 0 17 3.248 17 7.263C17 8.64 16.562 10.086 15.963 11.433C15.359 12.793 14.561 14.117 13.778 15.27C13 16.414 12.153 17.457 11.315 18.447ZM7.876 14.145C8.533 15.111 9.253 16.013 10 16.903C10.747 16.013 11.467 15.111 12.124 14.145C12.867 13.051 13.595 11.835 14.135 10.621C14.679 9.397 15 8.245 15 7.263C15 4.283 12.696 2 10 2C7.304 2 5 4.282 5 7.263C5 8.245 5.32 9.397 5.865 10.621C6.405 11.834 7.133 13.051 7.876 14.145Z" fill="black"/>
</svg>
