<svg width="20" height="20" viewBox="0 0 20 20" fill="none" xmlns="http://www.w3.org/2000/svg">
<g clip-path="url(#clip0_55_30)">
<path fill-rule="evenodd" clip-rule="evenodd" d="M12.906 14.32C11.2985 15.5678 9.27579 16.1562 7.24975 15.9652C5.22371 15.7742 3.3466 14.8183 2.00054 13.2921C0.654488 11.7658 -0.0593238 9.78394 0.0044173 7.74992C0.0681584 5.7159 0.904661 3.78262 2.34364 2.34365C3.78261 0.904669 5.71589 0.068166 7.74992 0.00442493C9.78394 -0.0593161 11.7658 0.654496 13.2921 2.00055C14.8183 3.3466 15.7742 5.22371 15.9652 7.24975C16.1562 9.27579 15.5678 11.2985 14.32 12.906L19.707 18.293C19.8892 18.4816 19.9899 18.7342 19.9877 18.9964C19.9854 19.2586 19.8802 19.5094 19.6948 19.6948C19.5094 19.8802 19.2586 19.9854 18.9964 19.9877C18.7342 19.99 18.4816 19.8892 18.293 19.707L12.906 14.32ZM13.714 8C13.714 9.51545 13.112 10.9688 12.0404 12.0404C10.9688 13.112 9.51544 13.714 7.99999 13.714C6.48454 13.714 5.03117 13.112 3.95958 12.0404C2.888 10.9688 2.28599 9.51545 2.28599 8C2.28599 6.48455 2.888 5.03117 3.95958 3.95959C5.03117 2.88801 6.48454 2.286 7.99999 2.286C9.51544 2.286 10.9688 2.88801 12.0404 3.95959C13.112 5.03117 13.714 6.48455 13.714 8Z" fill="black"/>
</g>
<defs>
<clipPath id="clip0_55_30">
<rect width="20" height="20" fill="white"/>
</clipPath>
</defs>
</svg>
