<svg width="144" height="21" viewBox="0 0 144 21" fill="none" xmlns="http://www.w3.org/2000/svg">
<g clip-path="url(#clip0_46_18)">
<path d="M97.1429 6.83396C95.7551 5.1605 96 4.26254 97.5919 4.46662C98.6531 4.62988 102.163 6.4258 105.388 10.3442L109.633 15.487C111.225 17.4054 111.959 18.8748 112.286 20.5074H116.122C115.714 18.1401 114.816 16.0176 112 12.5891L109.02 8.95641C104.898 3.93601 100 0.629883 94.6531 0.629883C90.5715 0.629883 89.9184 4.01764 93.3062 8.14009L99.1021 15.1197C101.184 17.6503 103.102 19.6095 103.959 20.2625H109.878C107.878 18.9972 105.429 16.6707 103.673 14.6299L97.1429 6.83396ZM23.6327 1.1605L33.5919 20.4258H37.7143L30.1633 6.34417H30.2857L44.8572 20.5483H50.0817L29.7143 1.1605H23.6327ZM122.408 0.99723L138.204 19.4462H138.082L115.061 1.03805H110.408L126.612 20.3034H131.225L121.918 9.85437H121.878L135.02 20.4666H143.061L126.735 1.03805L122.408 0.99723ZM53.4694 1.11968L69.2245 19.5687H69.1021L46.1225 1.11968H41.4694L57.6735 20.385H62.2857L52.8164 9.93601H52.9388L66.0817 20.5483H74.1225L57.7959 1.11968H53.4694ZM89.1429 15.1197L82.6531 1.07886H78.6531L83.4694 10.7115H83.347L70.5306 1.07886H64.8572L84.9796 15.8952L88.8572 20.4666H93.7143L89.1429 15.1197ZM21.7959 20.6299H25.8368C25.551 18.7931 24.7755 17.038 23.551 15.6503H19.1429C20.7347 17.5278 21.4286 18.9972 21.7959 20.6299ZM17.9184 8.05845H12.898C10.449 5.81356 8.2041 4.71152 7.38778 4.62988C5.79594 4.4258 5.55104 5.32376 6.9388 6.99723L13.4694 14.834C15.2245 16.8748 17.6735 19.2013 19.6735 20.4666H13.8368C13.7959 20.4666 13.7959 20.4666 13.7551 20.4258C12.898 19.7727 10.9796 17.7727 8.89798 15.2829L3.14288 8.30335C-0.285691 4.14009 0.408186 0.793148 4.449 0.793148C9.42859 0.793148 14 3.65029 17.9184 8.05845Z" fill="black"/>
</g>
<defs>
<clipPath id="clip0_46_18">
<rect width="144" height="20" fill="white" transform="translate(0 0.629883)"/>
</clipPath>
</defs>
</svg>
